HIERARCHY
ROOT Hips
{
  OFFSET -187.679 86.5976 -156.378
  CHANNELS 6 Xposition Yposition Zposition Zrotation Xrotation Yrotation
  JOINT LeftUpLeg
  {
    OFFSET 8.64259 1.95398 -2.38835
    CHANNELS 3 Zrotation Xrotation Yrotation
    JOINT LeftLeg
    {
      OFFSET 43.7702 0 0
      CHANNELS 3 Zrotation Xrotation Yrotation
      JOINT LeftFoot
      {
        OFFSET 40.6238 0 0
        CHANNELS 3 Zrotation Xrotation Yrotation
        JOINT LeftToeBase
        {
          OFFSET 12.7242 0 0
          CHANNELS 3 Zrotation Xrotation Yrotation
          End Site
          {
            OFFSET 0 0 0
          }
        }
      }
    }
  }
  JOINT RightUpLeg
  {
    OFFSET -8.2249 1.95398 -2.59336
    CHANNELS 3 Zrotation Xrotation Yrotation
    JOINT RightLeg
    {
      OFFSET 43.5653 0 0
      CHANNELS 3 Zrotation Xrotation Yrotation
      JOINT RightFoot
      {
        OFFSET 40.6238 0 0
        CHANNELS 3 Zrotation Xrotation Yrotation
        JOINT RightToeBase
        {
          OFFSET 12.7242 0 0
          CHANNELS 3 Zrotation Xrotation Yrotation
          End Site
          {
            OFFSET 0 0 0
          }
        }
      }
    }
  }
  JOINT Spine
  {
    OFFSET 0.165834 0.87714 6.61349
    CHANNELS 3 Zrotation Xrotation Yrotation
    JOINT Spine1
    {
      OFFSET 7.38963 1.71661e-005 0
      CHANNELS 3 Zrotation Xrotation Yrotation
      JOINT Spine2
      {
        OFFSET 11.9445 1.14441e-005 0
        CHANNELS 3 Zrotation Xrotation Yrotation
        JOINT Spine3
        {
          OFFSET 14.7254 4.19617e-005 0
          CHANNELS 3 Zrotation Xrotation Yrotation
          JOINT Spine4
          {
            OFFSET 10.9679 0 0
            CHANNELS 3 Zrotation Xrotation Yrotation
            JOINT RightShoulder
            {
              OFFSET 2.46616 -1.6653 3.69651
              CHANNELS 3 Zrotation Xrotation Yrotation
              JOINT RightArm
              {
                OFFSET 13.0012 0 0
                CHANNELS 3 Zrotation Xrotation Yrotation
                JOINT RightForeArm
                {
                  OFFSET 28.7848 1.52588e-005 0
                  CHANNELS 3 Zrotation Xrotation Yrotation
                  JOINT RightHand
                  {
                    OFFSET 26.5688 1.52588e-005 0
                    CHANNELS 3 Zrotation Xrotation Yrotation
                    End Site
                    {
                      OFFSET 0 0 0
                    }
                  }
                }
              }
            }
            JOINT LeftShoulder
            {
              OFFSET 2.38034 -1.29275 -3.7523
              CHANNELS 3 Zrotation Xrotation Yrotation
              JOINT LeftArm
              {
                OFFSET 16.3182 6.10352e-005 0
                CHANNELS 3 Zrotation Xrotation Yrotation
                JOINT LeftForeArm
                {
                  OFFSET 27.0901 0 0
                  CHANNELS 3 Zrotation Xrotation Yrotation
                  JOINT LeftHand
                  {
                    OFFSET 24.5451 1.52588e-005 0
                    CHANNELS 3 Zrotation Xrotation Yrotation
                    End Site
                    {
                      OFFSET 0 0 0
                    }
                  }
                }
              }
            }
            JOINT Neck
            {
              OFFSET 5.0226 -0.0266342 0
              CHANNELS 3 Zrotation Xrotation Yrotation
              JOINT Head
              {
                OFFSET 6.69363 2.86102e-005 0
                CHANNELS 3 Zrotation Xrotation Yrotation
                End Site
                {
                  OFFSET 0 0 0
                }
              }
            }
          }
        }
      }
    }
  }
}
MOTION
Frames:	18
Frame Time:	0.0416667
5.91724 102.046 -3.85819 -103.102 -48.5159 -100.882 -174.492 -6.09566 89.949 -16.6188 21.2062 9.11468 70.1924 4.29512 -3.70503 17.5574 -6.3758 4.23026 172.325 -7.0645 86.4769 -14.5634 5.13263 1.26901 65.3237 -2.65206 1.50256 28.8249 -1.22912 4.31201 0.0994232 7.9285 -89.8085 11.0163 0.286717 0.353568 -0.654683 0.302003 0.3406 -23.1896 0.167203 0.423392 -3.17692 0.167182 0.423383 83.621 -50.2899 -110.174 25.6287 -23.6577 -10.9015 -16.5546 -15.6261 -18.1065 -10.7444 -0.195486 -3.00039 -91.0744 -46.2154 76.4374 -24.1272 28.5421 -8.4575 9.18476 -3.65506 -16.5884 -0.759925 -0.0322095 -0.314587 4.50755 2.91033 -1.73026 5.80182 3.15916 0.0177549 
5.91342 102.036 -3.83247 -103.187 -48.439 -100.953 -174.581 -6.34982 89.902 -16.1166 20.1818 9.09454 71.0501 3.89259 -6.74541 17.6117 -8.94516 9.74394 172.45 -7.02439 86.5152 -14.7563 5.4132 1.12872 65.7421 -2.70073 1.6445 28.517 -1.23369 4.12159 0.139388 7.97241 -89.8505 10.9286 0.346615 0.264574 -0.742331 0.357924 0.249062 -23.2775 0.251073 0.356509 -3.26485 0.251074 0.356515 84.8143 -49.3797 -108.685 25.9989 -23.3539 -11.7182 -16.6687 -16.4081 -17.9894 -13.3049 -0.351881 -1.96685 -91.3342 -46.6152 76.1371 -23.7955 28.2534 -9.15834 9.40516 -3.00012 -16.3513 -1.43452 -0.0595377 -0.841248 5.02323 2.65465 -1.01809 5.77864 2.76925 -0.194688 
5.92903 102.027 -3.8372 -103.171 -48.4027 -100.923 -174.466 -6.48734 90.0613 -15.7178 20.1468 8.96052 72.2608 3.65056 -9.51868 18.3217 -11.7578 16.4001 172.502 -7.11331 86.5652 -14.5763 5.21254 1.06546 65.7202 -2.69706 1.45778 28.6538 -1.13682 3.87901 0.136225 7.95817 -89.8316 10.957 0.349245 0.301925 -0.713921 0.362208 0.286256 -23.249 0.24236 0.392926 -3.23636 0.242361 0.392936 84.4111 -49.8683 -109.132 25.5057 -23.7355 -11.5569 -16.7214 -16.6417 -18.2162 -13.4251 -0.369164 -1.85104 -90.9736 -46.1502 76.5775 -24.1486 28.6894 -9.18151 9.30922 -3.09852 -16.2497 -1.50737 -0.0634695 -1.10158 5.21877 2.69569 -1.35765 5.56821 2.87849 -0.126349 
5.94284 102.043 -3.84118 -103.289 -48.3069 -100.989 -174.451 -6.58852 90.0748 -15.8186 20.2815 8.99145 72.306 3.53676 -9.98423 18.7581 -12.34 18.0734 172.527 -7.20723 86.5745 -14.5472 5.31748 1.02185 65.7136 -2.70573 1.62452 28.5154 -1.22024 4.07427 0.154742 7.95866 -89.8371 10.956 0.383571 0.287708 -0.7149 0.395848 0.270558 -23.2501 0.279371 0.389691 -3.23742 0.27935 0.389684 84.6657 -49.8043 -108.77 25.6084 -24.2372 -11.7003 -16.279 -15.8339 -17.7885 -12.7003 -0.259531 -2.72182 -90.944 -46.1621 76.6265 -24.1083 28.8703 -9.25714 9.26726 -3.186 -16.0898 -1.14741 -0.0527346 -1.02068 5.23828 2.68813 -1.21406 5.77621 2.82463 -0.385726 
5.93791 102.09 -3.83318 -103.428 -48.1785 -101.009 -174.37 -6.57242 90.0938 -16.2384 20.1092 8.95029 71.3768 4.01736 -6.66967 17.9293 -8.81951 9.85116 172.527 -7.49336 86.6165 -14.186 5.15753 1.01675 65.5059 -2.71157 1.56108 28.5344 -1.18432 3.96368 0.16149 7.9604 -89.8451 10.9525 0.393269 0.270952 -0.718367 0.404828 0.253374 -23.2536 0.293672 0.376625 -3.24095 0.293659 0.376617 84.5919 -49.8716 -108.859 25.6323 -24.3801 -11.547 -16.2956 -15.689 -17.9433 -12.2573 -0.230568 -2.90545 -90.9139 -46.165 76.674 -24.3148 28.5422 -9.13517 9.46377 -2.8414 -16.1634 -1.02457 -0.0527315 -1.2965 5.51965 2.55739 -1.20908 5.40514 2.68879 -0.538028 
5.96107 102.092 -3.83324 -103.498 -48.2037 -101.077 -174.375 -6.49464 90.0792 -16.5461 20.2068 8.96436 71.7764 4.23857 -6.4095 16.6746 -9.28418 9.43821 172.516 -7.62101 86.5916 -14.0169 5.29763 1.00546 65.5174 -2.76821 1.70044 28.4662 -1.24665 4.13247 0.153431 7.96788 -89.8581 10.9398 0.371169 0.247151 -0.731091 0.38169 0.230565 -23.2663 0.279729 0.347269 -3.25367 0.279735 0.347275 84.7233 -49.6895 -108.721 25.7911 -24.356 -11.4724 -16.4593 -15.7846 -18.251 -12.0566 -0.241179 -2.76507 -90.9931 -46.2065 76.5614 -24.1825 28.9104 -9.19365 9.22056 -3.37031 -16.2029 -1.26315 -0.0523921 -1.25579 5.5487 2.49874 -1.05032 5.54947 2.59526 -0.619189 
5.95896 102.119 -3.84101 -103.576 -48.2332 -101.054 -174.278 -6.40794 90.2007 -16.7726 20.2219 8.91394 71.0497 4.18352 -5.42128 17.7132 -7.40345 6.67257 172.575 -7.82896 86.6967 -13.7065 5.43234 1.00942 65.3284 -2.74219 1.7284 28.4657 -1.24476 4.12563 0.133497 7.96607 -89.8775 10.9414 0.322472 0.213216 -0.72956 0.331544 0.198818 -23.2648 0.243495 0.300281 -3.25213 0.243486 0.300274 84.6012 -49.6503 -108.918 25.8328 -24.1651 -11.382 -16.5373 -16.0065 -18.259 -12.1333 -0.257916 -2.61264 -91.0722 -46.3634 76.4781 -24.1043 28.8021 -9.02717 9.25553 -3.39863 -16.3328 -1.30688 -0.0505479 -1.15009 5.40962 2.53574 -0.923662 5.713 2.60213 -0.671845 
5.9776 102.087 -3.8406 -103.521 -48.086 -101.018 -174.308 -6.65332 90.1926 -16.3224 20.1515 8.92148 73.1706 4.53326 -7.41876 13.9121 -11.958 11.5877 172.636 -7.71875 86.7054 -13.8696 5.27029 0.909286 65.4644 -2.72878 1.69172 28.5275 -1.20559 4.03214 0.141923 7.95342 -89.8659 10.9666 0.344826 0.233979 -0.704289 0.354777 0.218573 -23.2395 0.258539 0.32679 -3.22686 0.258543 0.326796 84.3725 -49.9 -109.18 25.7112 -24.1501 -11.1365 -16.5689 -15.7839 -18.351 -11.757 -0.243277 -2.68481 -90.9981 -46.0994 76.5267 -24.4205 28.8024 -8.89241 8.97375 -4.27409 -16.3927 -1.09833 -0.0495717 -0.918977 5.32491 2.50683 -1.20455 5.60697 2.63097 -0.606791 
5.96448 102.098 -3.80502 -103.68 -47.97 -101.151 -174.322 -6.78102 90.1285 -16.2605 19.9605 8.94553 71.5126 4.00189 -6.92702 17.7614 -9.03568 10.1171 172.576 -7.87666 86.6259 -13.8309 5.15488 0.894592 65.5084 -2.74496 1.76656 28.4469 -1.2366 4.08529 0.142439 7.96203 -89.8651 10.9494 0.34605 0.235508 -0.721518 0.356091 0.220037 -23.2567 0.259272 0.328621 -3.24409 0.259269 0.328618 84.5208 -49.7623 -109.002 25.9905 -24.172 -11.1459 -16.4419 -15.496 -18.1165 -11.7522 -0.228122 -2.83915 -90.882 -45.9421 76.6678 -24.6304 28.6712 -9.03271 9.1452 -3.67916 -16.1815 -1.14194 -0.0519536 -0.949166 5.22943 2.48933 -1.17885 5.5801 2.6119 -0.559975 
5.97157 102.141 -3.76039 -103.65 -47.8634 -101.097 -174.299 -6.70115 90.0909 -16.7272 19.7981 8.90588 71.7011 4.52851 -5.11784 15.6569 -7.94667 5.64967 172.523 -8.02818 86.5902 -13.5235 4.86662 0.907575 65.3068 -2.73213 1.59443 28.4496 -1.24035 4.09982 0.147105 7.96359 -89.8745 10.9437 0.351014 0.216377 -0.727207 0.360194 0.200709 -23.2625 0.269765 0.311868 -3.24981 0.269748 0.311859 84.6122 -49.7116 -108.881 25.9601 -24.2763 -11.2853 -16.2926 -15.4686 -17.8997 -12.1697 -0.233696 -2.86005 -90.891 -45.9971 76.6674 -24.5904 28.6671 -9.08336 9.01874 -4.08849 -16.1732 -0.908516 -0.0441961 -0.87369 5.27671 2.40959 -1.03928 5.54631 2.49403 -0.762667 
5.94446 102.16 -3.72518 -103.622 -47.7537 -101.096 -174.337 -6.6756 89.9594 -16.9334 19.5684 8.91638 70.7832 4.62634 -3.17292 16.3022 -5.35585 0.822708 172.567 -8.08504 86.588 -13.4143 4.93123 0.826118 65.2369 -2.74369 1.71249 28.4664 -1.23729 4.10041 0.153761 7.96401 -89.8766 10.9386 0.363298 0.211259 -0.732267 0.37224 0.195062 -23.2676 0.283017 0.310681 -3.25491 0.283008 0.310679 84.6094 -49.7913 -108.859 25.833 -24.3447 -11.31 -16.2678 -15.6882 -17.8478 -12.0894 -0.229175 -2.8916 -90.9558 -46.0392 76.5771 -24.4043 28.6908 -9.23441 9.11646 -3.54999 -16.047 -0.789945 -0.046477 -1.29349 5.27809 2.47642 -1.13183 5.54881 2.59978 -0.440657 
5.90521 102.209 -3.70684 -103.514 -47.6702 -100.945 -174.329 -6.42054 90.0074 -17.6022 19.1443 8.89528 70.6198 4.26737 -4.02758 17.3668 -5.68898 2.54264 172.572 -8.36285 86.6433 -12.7447 4.73717 0.845735 64.919 -2.77234 1.57156 28.5285 -1.19765 4.00546 0.159199 7.96981 -89.8934 10.9342 0.366315 0.177415 -0.736697 0.373755 0.161119 -23.272 0.29607 0.279312 -3.2594 0.296055 0.279292 84.7624 -49.5886 -108.695 25.9714 -24.3522 -11.3857 -16.3585 -16.0759 -17.9172 -12.2114 -0.266984 -2.5386 -90.9025 -46.0557 76.6642 -24.3808 28.5698 -9.31367 9.04524 -3.66402 -16.3356 -0.420083 -0.0336243 -1.06895 5.38662 2.51823 -0.941269 5.60771 2.59398 -0.602703 
5.89463 102.22 -3.66458 -103.411 -47.7172 -100.977 -174.44 -6.47403 89.8219 -17.6651 20.0292 9.05757 70.4222 4.38511 -3.34332 17.7053 -5.85289 3.23479 172.488 -8.2485 86.5209 -12.8878 4.63122 0.860317 65.1387 -2.795 1.49034 28.2575 -1.24431 3.98708 0.159141 7.95065 -89.8843 10.9722 0.370417 0.194965 -0.698724 0.378648 0.178464 -23.2341 0.29469 0.297282 -3.22141 0.294705 0.297284 84.6771 -49.5384 -108.84 26.1709 -24.2404 -11.0133 -16.4727 -16.2603 -18.1488 -12.4286 -0.275093 -2.50431 -90.9036 -46.0719 76.6666 -24.5217 28.3886 -9.30061 9.36496 -2.61961 -16.0119 -0.836535 -0.0445262 -1.03874 5.21718 2.48228 -0.966138 5.76806 2.56206 -0.595156 
5.93436 102.181 -3.64191 -103.195 -47.7793 -100.918 -174.584 -6.42318 89.637 -17.2256 19.4052 9.04131 70.6549 4.39985 -3.71952 16.5447 -6.19637 2.8485 172.418 -7.91938 86.3802 -13.1942 4.70831 0.87877 65.2141 -2.78974 1.68029 28.4826 -1.20047 3.98501 0.164518 7.94031 -89.8865 10.9929 0.380094 0.189514 -0.67797 0.388063 0.172587 -23.2133 0.305569 0.295829 -3.20069 0.305562 0.295812 84.8982 -49.3474 -108.568 26.225 -24.3793 -10.9801 -16.3968 -15.876 -18.2025 -12.5049 -0.292059 -2.35674 -91.16 -46.2415 76.3111 -24.3989 28.3709 -9.15409 9.39637 -2.77371 -16.1044 -0.920861 -0.0462064 -0.978601 5.26887 2.4769 -0.78039 5.74742 2.52812 -0.525926 
5.83173 102.128 -3.60065 -103.171 -47.7808 -100.871 -174.495 -6.634 89.7651 -16.674 19.5197 8.99916 70.8703 4.61526 -3.41084 16.3307 -5.74023 1.66688 172.439 -7.76302 86.4315 -13.631 4.71199 0.907532 65.45 -2.7724 1.61025 28.5024 -1.25809 4.19564 0.163496 7.94428 -89.8842 10.985 0.379165 0.194335 -0.685912 0.387367 0.177451 -23.2213 0.30323 0.302093 -3.20862 0.303243 0.302074 84.6387 -49.4545 -108.925 26.1843 -24.0479 -10.9981 -16.5158 -16.1927 -18.1896 -12.317 -0.288724 -2.35059 -91.1123 -46.2321 76.383 -24.4483 28.2376 -9.07323 9.4293 -2.77977 -16.1021 -1.09535 -0.0496435 -0.852041 5.29677 2.51177 -1.01294 5.72899 2.61717 -0.365333 
5.70803 102.12 -3.57553 -103.124 -47.7629 -100.847 -174.343 -6.55461 89.9162 -16.9293 19.6025 8.8299 70.8687 4.56233 -3.55767 17.0537 -5.70197 2.27358 172.409 -7.74369 86.4247 -13.7603 4.81987 0.952292 65.5812 -2.83589 1.78686 28.5301 -1.21811 4.0768 0.171129 7.93735 -89.8884 10.9989 0.392539 0.18454 -0.672018 0.400293 0.167092 -23.2074 0.318945 0.293906 -3.19477 0.318933 0.293908 84.8311 -49.3588 -108.666 26.2983 -24.229 -11.1552 -16.3263 -16.03 -17.8881 -12.3249 -0.248583 -2.73998 -91.2451 -46.5892 76.2678 -24.0751 28.5043 -8.85997 9.11062 -3.82241 -16.2876 -0.801126 -0.0348382 -0.411908 4.92958 2.54058 -0.840507 6.16921 2.60384 -0.447908 
5.54173 102.091 -3.51909 -102.95 -47.9848 -100.616 -174.103 -6.23442 90.288 -17.4712 20.4559 8.70875 70.976 4.66644 -3.38029 17.5615 -5.59901 2.53538 172.26 -7.69944 86.4787 -13.8212 4.5329 1.24124 65.7048 -2.88488 1.36257 28.5397 -1.24012 4.15887 0.17146 7.92399 -89.8895 11.0255 0.392606 0.182297 -0.645362 0.400226 0.164832 -23.1807 0.319667 0.291859 -3.16811 0.319659 0.29185 84.8014 -49.5655 -108.643 26.3889 -24.0748 -11.1497 -16.3192 -15.8287 -17.8832 -11.9644 -0.215011 -3.01001 -91.2529 -46.4432 76.2187 -24.1112 28.4889 -8.75739 9.13105 -3.87284 -16.2059 -0.913151 -0.0395299 -0.48172 4.80829 2.54213 -1.25952 6.14718 2.70886 -0.0833958 
5.25785 102.101 -3.54257 -102.788 -47.8586 -100.382 -173.899 -5.98366 90.659 -17.9839 19.9895 8.53898 69.7477 3.76658 -4.67983 21.4415 -4.44259 3.85233 172.301 -7.50974 86.6924 -14.3586 4.45285 1.31911 66.0946 -3.06434 1.37951 28.1427 -1.2418 3.90336 0.198247 7.92956 -89.8966 11.0145 0.442633 0.163375 -0.656412 0.449372 0.143738 -23.1919 0.373055 0.288855 -3.1793 0.373067 0.288848 84.4833 -49.81 -109.043 26.1771 -23.933 -10.967 -16.2225 -14.8827 -17.9053 -11.6853 -0.153868 -3.58583 -91.1264 -46.209 76.3551 -24.2844 28.1899 -8.84466 9.22553 -3.56506 -16.0697 -0.98217 -0.0439892 -0.69325 5.03185 2.51616 -1.20738 6.25174 2.66746 -0.18444 
